<svg width="34" height="34" viewBox="0 0 34 34" fill="none" xmlns="http://www.w3.org/2000/svg">
<g clip-path="url(#clip0_127_119)">
<path d="M1.40592 1.40591H7.0296L10.7975 20.2312C10.926 20.8785 11.2782 21.4599 11.7922 21.8737C12.3063 22.2875 12.9495 22.5074 13.6093 22.4947H27.2748C27.9346 22.5074 28.5779 22.2875 29.0919 21.8737C29.606 21.4599 29.9581 20.8785 30.0867 20.2312L32.3362 8.43551H8.43552M14.0592 29.5243C14.0592 30.3008 13.4297 30.9302 12.6533 30.9302C11.8768 30.9302 11.2474 30.3008 11.2474 29.5243C11.2474 28.7478 11.8768 28.1184 12.6533 28.1184C13.4297 28.1184 14.0592 28.7478 14.0592 29.5243ZM29.5243 29.5243C29.5243 30.3008 28.8949 30.9302 28.1184 30.9302C27.3419 30.9302 26.7125 30.3008 26.7125 29.5243C26.7125 28.7478 27.3419 28.1184 28.1184 28.1184C28.8949 28.1184 29.5243 28.7478 29.5243 29.5243Z" stroke="#1E1E1E" stroke-width="4" stroke-linecap="round" stroke-linejoin="round"/>
</g>
<defs>
<clipPath id="clip0_127_119">
<rect width="33.7421" height="33.7421" fill="white"/>
</clipPath>
</defs>
</svg>
